<?xml version="1.0" encoding="UTF-8" standalone="no"?>
<!DOCTYPE svg PUBLIC "-//W3C//DTD SVG 1.1//EN" "http://www.w3.org/Graphics/SVG/1.1/DTD/svg11.dtd">
<svg width="100%" height="100%" viewBox="0 0 300 250" version="1.1" xmlns="http://www.w3.org/2000/svg" xmlns:xlink="http://www.w3.org/1999/xlink" xml:space="preserve" xmlns:serif="http://www.serif.com/" style="fill-rule:evenodd;clip-rule:evenodd;stroke-linejoin:round;stroke-miterlimit:2;">
    <g transform="matrix(12.5,0,0,12.499981,0,-24.999963)">
        <path d="M16.278,2C17.434,2 18.371,2.927 18.371,4.07L18.371,16.571C18.388,16.967 18.719,17.282 19.115,17.28C19.511,17.282 19.841,16.966 19.858,16.571L19.858,9.099C19.864,7.973 20.792,7.05 21.918,7.05C21.922,7.05 21.936,7.05 21.94,7.05C23.066,7.05 23.995,7.974 24,9.1L24,15.661C23.998,16.017 23.704,16.308 23.348,16.306C23.347,16.306 23.345,16.306 23.344,16.306C22.989,16.306 22.697,16.016 22.695,15.661L22.695,9.1C22.693,8.683 22.35,8.342 21.933,8.342L21.925,8.342C21.508,8.342 21.165,8.683 21.163,9.1L21.163,16.572C21.157,17.685 20.239,18.598 19.126,18.598L19.104,18.598C17.991,18.598 17.073,17.685 17.067,16.572L17.067,4.072C17.05,3.652 16.699,3.317 16.279,3.319C15.859,3.316 15.508,3.651 15.49,4.071L15.489,19.975C15.482,21.092 14.558,22.006 13.441,22C13.437,22 13.434,22 13.43,22C12.317,22 11.399,21.087 11.393,19.974L11.393,18.04C11.393,17.684 11.685,17.395 12.045,17.395C12.405,17.395 12.697,17.684 12.697,18.04L12.697,19.974C12.697,20.237 12.839,20.48 13.069,20.612C13.299,20.743 13.583,20.743 13.813,20.612C14.042,20.482 14.185,20.238 14.185,19.974L14.185,4.07C14.185,2.927 15.122,2 16.278,2ZM10.604,2C11.76,2 12.697,2.927 12.697,4.07L12.697,15.593C12.695,15.947 12.403,16.238 12.049,16.238L12.041,16.238C11.687,16.238 11.395,15.947 11.393,15.593L11.393,4.07C11.39,3.64 11.034,3.288 10.604,3.29C10.174,3.288 9.818,3.64 9.815,4.07L9.815,18.083C9.808,19.212 8.874,20.137 7.745,20.131C6.615,20.137 5.681,19.213 5.674,18.083L5.674,9.1C5.672,8.683 5.329,8.342 4.912,8.342L4.904,8.342C4.487,8.342 4.144,8.683 4.142,9.1L4.142,12.9C4.136,14.026 3.208,14.949 2.082,14.949L2.06,14.949C0.934,14.949 0.006,14.026 0,12.9L0,11.522C0,11.165 0.292,10.876 0.652,10.876C1.012,10.876 1.305,11.166 1.305,11.522L1.305,12.9C1.305,13.318 1.648,13.657 2.071,13.657C2.494,13.657 2.837,13.318 2.837,12.9L2.837,9.099C2.844,7.97 3.778,7.045 4.907,7.051C6.037,7.045 6.971,7.969 6.978,9.099L6.978,18.083C6.978,18.502 7.321,18.841 7.745,18.841C8.168,18.841 8.511,18.502 8.511,18.083L8.511,4.07C8.511,2.927 9.448,2 10.604,2Z" style="fill:url(#_Linear1);fill-rule:nonzero;"/>
    </g>
    <defs>
        <linearGradient id="_Linear1" x1="0" y1="0" x2="1" y2="0" gradientUnits="userSpaceOnUse" gradientTransform="matrix(24.04368,0,0,24.04368,0,12.011415)"><stop offset="0" style="stop-color:rgb(226,22,126);stop-opacity:1"/><stop offset="1" style="stop-color:rgb(254,96,60);stop-opacity:1"/></linearGradient>
    </defs>
</svg>
